<svg fill="none" xmlns="http://www.w3.org/2000/svg">
<symbol viewBox="0 0 42 39" id="logo">
<path d="M11 11.7156L1 21.7156L11 31.7156" stroke="black" stroke-width="2" stroke-linecap="round" stroke-linejoin="round"/>
<path d="M31 11.7156L41 21.7156L31 31.7156" stroke="black" stroke-width="2" stroke-linecap="round" stroke-linejoin="round"/>
<path d="M24.5349 4.32966L15.9481 36.3761C15.8314 36.8115 15.3838 37.07 14.9483 36.9533C14.5129 36.8366 14.2544 36.389 14.3711 35.9535L22.9579 3.9071C23.0746 3.47162 23.5222 3.21319 23.9577 3.32987C24.3932 3.44656 24.6516 3.89418 24.5349 4.32966Z" fill="black"/>
<path d="M22.9579 3.9071C23.0746 3.47162 23.5222 3.21319 23.9577 3.32987C24.3932 3.44656 24.6516 3.89418 24.5349 4.32966L23.4891 8.23279L21.9121 7.81023L22.9579 3.9071Z" fill="#D9D9D9"/>
<path d="M25.6948 6.30951L28.8488 7.15463" stroke="black" stroke-linecap="round"/>
<path d="M17.8096 4.19672L20.9637 5.04184" stroke="black" stroke-linecap="round"/>
<path d="M19.6457 0.49826L21.2833 3.30751" stroke="black" stroke-linecap="round"/>
<path d="M17.5865 8.18353L20.4093 6.56946" stroke="black" stroke-linecap="round"/>
<path d="M25.2756 7.87344L26.9133 10.6827" stroke="black" stroke-linecap="round"/>
<path d="M26.1497 4.61148L28.9725 2.99741" stroke="black" stroke-linecap="round"/>
</symbol>

<symbol id="arow" viewBox="0 0 10 6">
<path d="M9.375 0.375L4.875 5.375L0.375 0.375" stroke="black" stroke-width="0.75" stroke-linecap="round" stroke-linejoin="round"/>
</symbol>

<symbol id="lupa" viewBox="0 0 16 16">
<circle cx="6.52174" cy="6.52174" r="5.52174" stroke="white" stroke-width="2"/>
<path d="M14.2929 15.7071C14.6834 16.0976 15.3166 16.0976 15.7071 15.7071C16.0976 15.3166 16.0976 14.6834 15.7071 14.2929L14.2929 15.7071ZM11.468 10.0538L10.7609 9.34665L9.34666 10.7609L10.0538 11.468L11.468 10.0538ZM15.7071 14.2929L11.468 10.0538L10.0538 11.468L14.2929 15.7071L15.7071 14.2929Z" fill="white"/>
</symbol>

<symbol id="line" viewBox="0 0 100 1">
<path d="M0 0.5H100" stroke="black" stroke-dasharray="2 2"/>
</symbol>

<symbol id="left_arow" viewBox="0 0 24 24">
<g id="SVGRepo_bgCarrier" stroke-width="0"></g><g id="SVGRepo_tracerCarrier" stroke-linecap="round" stroke-linejoin="round"></g><g id="SVGRepo_iconCarrier"> <path d="M16.1795 3.26875C15.7889 2.87823 15.1558 2.87823 14.7652 3.26875L8.12078 9.91322C6.94952 11.0845 6.94916 12.9833 8.11996 14.155L14.6903 20.7304C15.0808 21.121 15.714 21.121 16.1045 20.7304C16.495 20.3399 16.495 19.7067 16.1045 19.3162L9.53246 12.7442C9.14194 12.3536 9.14194 11.7205 9.53246 11.33L16.1795 4.68297C16.57 4.29244 16.57 3.65928 16.1795 3.26875Z" fill="#0F0F0F"></path> </g>
</symbol>

<symbol id="right_arow" viewBox="0 0 24 24">
<g id="SVGRepo_bgCarrier" stroke-width="0"></g><g id="SVGRepo_tracerCarrier" stroke-linecap="round" stroke-linejoin="round"></g><g id="SVGRepo_iconCarrier"> <path d="M7.82054 20.7313C8.21107 21.1218 8.84423 21.1218 9.23476 20.7313L15.8792 14.0868C17.0505 12.9155 17.0508 11.0167 15.88 9.84497L9.3097 3.26958C8.91918 2.87905 8.28601 2.87905 7.89549 3.26958C7.50497 3.6601 7.50497 4.29327 7.89549 4.68379L14.4675 11.2558C14.8581 11.6464 14.8581 12.2795 14.4675 12.67L7.82054 19.317C7.43002 19.7076 7.43002 20.3407 7.82054 20.7313Z" fill="#0F0F0F"></path> </g>
</symbol>

<symbol id="close_modal" viewBox="0 0 16 16">
<path d="M0.353516 0.353546L7.85352 7.85355M15.3535 15.3535L7.85352 7.85355M7.85352 7.85355L15.3535 0.353546L0.353516 15.3535" stroke="black"/>
</symbol>
</svg>
